<svg xmlns="http://www.w3.org/2000/svg" width="21.394" height="17.315" viewBox="0 0 21.394 17.315">
  <g id="Baths_Icon" data-name="Baths Icon" transform="translate(0.5 0.5)">
    <path id="Path_17" data-name="Path 17" d="M417.194,321.391h4.079v5.438a2.727,2.727,0,0,1-2.719,2.719H403.6a2.727,2.727,0,0,1-2.719-2.719v-5.438h13.6" transform="translate(-400.879 -314.593)" fill="none" stroke="#1a1a1a" stroke-linecap="round" stroke-linejoin="round" stroke-width="1"/>
    <line id="Line_82" data-name="Line 82" y2="1.36" transform="translate(3.399 14.956)" fill="none" stroke="#1a1a1a" stroke-linecap="round" stroke-linejoin="round" stroke-width="1"/>
    <line id="Line_83" data-name="Line 83" y2="1.36" transform="translate(16.995 14.956)" fill="none" stroke="#1a1a1a" stroke-linecap="round" stroke-linejoin="round" stroke-width="1"/>
    <path id="Path_18" data-name="Path 18" d="M416.67,300.686v-1.359a1.363,1.363,0,0,0-1.359-1.36h-1.36a1.364,1.364,0,0,0-1.36,1.36v5.438" transform="translate(-409.192 -297.967)" fill="none" stroke="#1a1a1a" stroke-linecap="round" stroke-linejoin="round" stroke-width="1"/>
    <line id="Line_84" data-name="Line 84" x2="2.719" transform="translate(6.118 2.719)" fill="none" stroke="#1a1a1a" stroke-linecap="round" stroke-linejoin="round" stroke-width="1"/>
    <line id="Line_85" data-name="Line 85" x1="3.399" transform="translate(16.995 9.517)" fill="none" stroke="#1a1a1a" stroke-linecap="round" stroke-linejoin="round" stroke-width="1"/>
  </g>
</svg>
