<svg xmlns="http://www.w3.org/2000/svg" width="17.193" height="17.193" viewBox="0 0 17.193 17.193">
  <g id="Beds_Icon" data-name="Beds Icon" transform="translate(0.5 0.5)">
    <g id="Group_31" data-name="Group 31" transform="translate(0 0)">
      <g id="Group_30" data-name="Group 30" transform="translate(0 9.176)">
        <path id="Path_14" data-name="Path 14" d="M255.814,187.875H243.94v3.778h1.619v-1.619h12.954v1.619h1.619v-3.778h-2.159" transform="translate(-243.94 -184.636)" fill="none" stroke="#1a1a1a" stroke-linecap="round" stroke-linejoin="round" stroke-width="1"/>
        <path id="Path_15" data-name="Path 15" d="M260.133,177.06V174.9a1.082,1.082,0,0,0-1.08-1.079H245.019a1.082,1.082,0,0,0-1.079,1.079v2.159" transform="translate(-243.94 -173.821)" fill="none" stroke="#1a1a1a" stroke-linecap="round" stroke-linejoin="round" stroke-width="1"/>
      </g>
      <path id="Path_16" data-name="Path 16" d="M260.133,143.952v-6.174a1.083,1.083,0,0,0-1.08-1.08h-3a4.264,4.264,0,0,0-7.932,0h-3.1a1.083,1.083,0,0,0-1.079,1.08v6.174" transform="translate(-243.94 -134)" fill="none" stroke="#1a1a1a" stroke-linecap="round" stroke-linejoin="round" stroke-width="1"/>
    </g>
    <rect id="Rectangle_160" data-name="Rectangle 160" width="7.557" height="4.318" rx="2.159" transform="translate(4.318 4.858)" fill="none" stroke="#1a1a1a" stroke-linecap="round" stroke-linejoin="round" stroke-width="1"/>
  </g>
</svg>
