<svg xmlns="http://www.w3.org/2000/svg" width="203.425" height="187.615" viewBox="0 0 203.425 187.615">
<defs><style>.home-help-a{fill:#36b2ff;}.home-help-b{fill:#fff;stroke:#707070;}.home-help-c{fill:none;}.home-help-d{fill:#5f9b00;}.home-help-e{stroke:none;}</style></defs>
<g transform="translate(-673.252 -479.455)"><g transform="translate(178.316 219.873)">
<path class="home-help-a" d="M523.283,352.808l13.461,5.017V338.057l-13.461-4.6Z" transform="translate(16.984 27.733)"/>
<path class="home-help-a" d="M537.769,358.242,550.532,363V342.678l-12.763-4.364Z" transform="translate(25.664 30.644)"/>
<path class="home-help-a" d="M666.862,338.077l-39.157-31.83a2.347,2.347,0,0,0-.251-.166c-.043-.026-.081-.059-.126-.083a2.526,2.526,0,0,0-.509-.2l-69.864-18.547a2.4,2.4,0,0,0-2.389.72h-58.03a1.6,1.6,0,1,0,0,3.2h7.778l-4.609,7.049h3.278V387.48H499.7l4.777,7.3h-7.946a1.6,1.6,0,1,0,0,3.2h27.235a2.176,2.176,0,0,0,.155.166v21.422a1.6,1.6,0,1,0,3.2,0v-5.285l7.279,7.243v-3.193l49.347,19.152v3.131l7.238-2.22v7.2a1.6,1.6,0,1,0,3.2,0V424.381l18.779-6.843a2.4,2.4,0,0,0,1.578-2.253V372.278l23.519-8.57V404.97a2.4,2.4,0,0,0,3.219,2.253l16.772-6.11a2.4,2.4,0,0,0,1.577-2.253V338.381l4.206,3.419a2.4,2.4,0,1,0,3.026-3.723ZM523.126,394.785H504.683l4.777-7.3h-3.278V298.213h3.278l-4.609-7.049h47.022L511.8,339.043a2.4,2.4,0,0,0,1.086,3.819l10.236,3.381Zm67.862,43.323-7.238-7.243v3.19L534.4,414.9v-3.13l-7.279,2.276V399.578l63.864,24.785ZM527.924,394.74V347.827L583.571,366.2a2.405,2.405,0,0,0,2.672-.84l3.945-5.258v58.8Zm55.517-33.634-65.69-21.693,39.45-47.14,64.94,17.241Zm71.393,36.074-11.973,4.362v-41.26a2.4,2.4,0,0,0-3.221-2.253l-28.316,10.316a2.4,2.4,0,0,0-1.577,2.253v43.006l-14.76,5.38V355.242l31.66-43.673,28.187,22.913Z" transform="translate(0)"/></g>
<g transform="matrix(0.883, 0.469, -0.469, 0.883, 478.038, -273.937)"><g class="home-help-b" transform="translate(655 505)">
<circle class="home-help-e" cx="32.5" cy="32.5" r="32.5"/><circle class="home-help-c" cx="32.5" cy="32.5" r="32"/></g>
<g transform="translate(633.582 518.172) rotate(-25)"><path class="home-help-c" d="M0,0H81.589V81.589H0Z"/>
<path class="home-help-d" d="M36,2a34,34,0,1,0,34,34A34.008,34.008,0,0,0,36,2Zm3.4,57.792H32.6v-6.8h6.8Zm7.037-26.346-3.06,3.128c-2.448,2.482-3.977,4.521-3.977,9.621H32.6v-1.7a13.683,13.683,0,0,1,3.977-9.621l4.215-4.283A6.647,6.647,0,0,0,42.794,25.8a6.8,6.8,0,0,0-13.6,0H22.4a13.6,13.6,0,0,1,27.2,0A10.817,10.817,0,0,1,46.432,33.446Z" transform="translate(4.799 4.799)"/></g></g></g>
</svg>