<svg xmlns="http://www.w3.org/2000/svg" width="81.87" height="81.87" viewBox="0 0 81.87 81.87">
<defs><style>.build-a{fill:#8ed4ff;}</style></defs><g transform="translate(-2 -2)"><path class="build-a" d="M77.423,13.7H37.087a2.924,2.924,0,1,0,0,5.848H77.423a.6.6,0,0,1,.6.6V77.426a.6.6,0,0,1-.6.6H8.447a.6.6,0,0,1-.6-.6V64.332a9.141,9.141,0,0,1,8.418-3.874,9.606,9.606,0,0,1,6.617,4.447,2.932,2.932,0,0,0,2.509,1.421,3,3,0,0,0,.781-.105A2.927,2.927,0,0,0,28.315,63.4V15.158A13.158,13.158,0,0,0,2,15.158V34.163a2.924,2.924,0,1,0,5.848,0V15.158a7.31,7.31,0,0,1,14.62,0V56.537a14.018,14.018,0,0,0-5.494-1.886,14.634,14.634,0,0,0-9.126,1.933V45.859a2.924,2.924,0,1,0-5.848,0V77.426A6.451,6.451,0,0,0,8.447,83.87H77.423a6.451,6.451,0,0,0,6.447-6.444V20.143A6.454,6.454,0,0,0,77.423,13.7Z" transform="translate(0 0)"/><path class="build-a" d="M16.965,31.63l.883-.86V44.157a2.923,2.923,0,0,0,2.924,2.924H44.164a2.923,2.923,0,0,0,2.924-2.924V30.771l.883.86a2.924,2.924,0,1,0,4.082-4.187l-5.538-5.4a2.86,2.86,0,0,0-.76-.74l-6.883-6.713a9.228,9.228,0,0,0-12.807,0L19.182,21.3a2.859,2.859,0,0,0-.76.74l-5.538,5.4a2.924,2.924,0,1,0,4.082,4.187ZM30.149,18.771a3.345,3.345,0,0,1,4.637,0l6.453,6.3V41.233H23.7V25.066Z" transform="translate(19.239 19.246)"/></g></svg>