<svg xmlns="http://www.w3.org/2000/svg" width="65.192" height="91.269" viewBox="0 0 65.192 91.269">
<defs><style>.contractor-a{fill:#8ed4ff;}</style></defs><path class="contractor-a" d="M67.932,76.971a3.257,3.257,0,0,0,3.26-3.26V70.057A19.188,19.188,0,0,0,52.029,50.894H51.55a16.129,16.129,0,0,0,3.344-9.779V31.336H55.3a13.7,13.7,0,0,0,7.223,9.091l.688.346a3.261,3.261,0,1,0,2.914-5.835l-.688-.342a7.248,7.248,0,0,1-4.029-6.519A22.836,22.836,0,0,0,41.856,5.52V5.26a3.26,3.26,0,1,0-6.519,0V5.52A22.833,22.833,0,0,0,15.779,28.077,7.248,7.248,0,0,1,11.75,34.6l-.688.342a3.261,3.261,0,0,0,2.914,5.835l.688-.346a13.7,13.7,0,0,0,7.223-9.091H22.3v9.779a16.129,16.129,0,0,0,3.344,9.779H25.16A19.185,19.185,0,0,0,6,70.057V90.009a3.259,3.259,0,0,0,3.26,3.26H67.932a3.257,3.257,0,0,0,3.26-3.26V86.75a3.26,3.26,0,1,0-6.519,0H58.154V59.066a12.6,12.6,0,0,1,6.519,10.991v3.654A3.257,3.257,0,0,0,67.932,76.971ZM38.6,65.233l-6.255-7.82h12.51ZM35.4,12.118a3.2,3.2,0,0,0,6.382,0,16.331,16.331,0,0,1,12.778,12.7H22.627A16.326,16.326,0,0,1,35.4,12.118Zm-6.588,29V31.336H48.375v9.779a9.779,9.779,0,0,1-19.558,0ZM12.519,86.75V70.057a12.6,12.6,0,0,1,6.519-10.991V86.75ZM25.558,59.372,35.336,71.6V86.75H25.558Zm16.3,27.377V71.6l9.779-12.224V86.75Z" transform="translate(-6 -2)"/>
</svg>