<svg xmlns="http://www.w3.org/2000/svg" width="27.385" height="27.385" viewBox="0 0 27.385 27.385">
<defs><style>.filter-a,.filter-b{fill:none;}.filter-b{opacity:0.87;}.filter-c{fill:#36b2ff;}</style></defs><path class="filter-a" d="M0,0H27.385V27.385H0Z"/>
<path class="filter-b" d="M0,0H27.385V27.385H0Z"/><path class="filter-c" d="M4.141,13.846A1.141,1.141,0,1,0,3,12.705,1.144,1.144,0,0,0,4.141,13.846Zm0,4.564A1.141,1.141,0,1,0,3,17.27,1.144,1.144,0,0,0,4.141,18.411Zm0-9.128A1.141,1.141,0,1,0,3,8.141,1.144,1.144,0,0,0,4.141,9.282Zm4.564,4.564H22.4a1.141,1.141,0,1,0,0-2.282H8.705a1.141,1.141,0,1,0,0,2.282Zm0,4.564H22.4a1.141,1.141,0,1,0,0-2.282H8.705a1.141,1.141,0,1,0,0,2.282ZM7.564,8.141A1.144,1.144,0,0,0,8.705,9.282H22.4A1.141,1.141,0,1,0,22.4,7H8.705A1.144,1.144,0,0,0,7.564,8.141ZM4.141,13.846A1.141,1.141,0,1,0,3,12.705,1.144,1.144,0,0,0,4.141,13.846Zm0,4.564A1.141,1.141,0,1,0,3,17.27,1.144,1.144,0,0,0,4.141,18.411Zm0-9.128A1.141,1.141,0,1,0,3,8.141,1.144,1.144,0,0,0,4.141,9.282Zm4.564,4.564H22.4a1.141,1.141,0,1,0,0-2.282H8.705a1.141,1.141,0,1,0,0,2.282Zm0,4.564H22.4a1.141,1.141,0,1,0,0-2.282H8.705a1.141,1.141,0,1,0,0,2.282ZM7.564,8.141A1.144,1.144,0,0,0,8.705,9.282H22.4A1.141,1.141,0,1,0,22.4,7H8.705A1.144,1.144,0,0,0,7.564,8.141Z" transform="translate(0.423 0.987)"/></svg>