<svg xmlns="http://www.w3.org/2000/svg" viewBox="0 0 19.891 19.891"><defs><style>.a{fill:none;}.b{fill:#b2b2b2;}</style></defs><path class="a" d="M0,0H19.891V19.891H0Z"/><path class="b" d="M10.288,2a8.288,8.288,0,1,0,8.288,8.288A8.291,8.291,0,0,0,10.288,2Zm.829,14.089H9.459V14.432h1.658Zm1.716-6.423-.746.762a2.821,2.821,0,0,0-.97,2.345H9.459V12.36a3.336,3.336,0,0,1,.97-2.345L11.456,8.97A1.621,1.621,0,0,0,11.945,7.8a1.658,1.658,0,0,0-3.315,0H6.973a3.315,3.315,0,0,1,6.63,0A2.637,2.637,0,0,1,12.832,9.666Z" transform="translate(-0.342 -0.342)"/></svg>