<svg xmlns="http://www.w3.org/2000/svg" width="19.014" height="23.607" viewBox="0 0 19.014 23.607">
<defs><style>.measure-a{fill:#333;stroke:#231f20;stroke-width:0.25px;}</style></defs><g transform="translate(-659.364 -153.063)"><path class="measure-a" d="M678.022,153.214a.345.345,0,0,0-.383.11L659.57,175.986a.345.345,0,0,0,.269.559h18.069a.344.344,0,0,0,.344-.344V153.539A.344.344,0,0,0,678.022,153.214Zm-.458,6.611H676.3a.287.287,0,0,0,0,.574h1.263v1.521h-.574a.287.287,0,0,0,0,.574h.574v1.521H676.3a.287.287,0,0,0,0,.574h1.263v1.52h-.574a.287.287,0,0,0,0,.574h.574V168.2H676.3a.287.287,0,0,0,0,.574h1.263V170.3h-.574a.287.287,0,0,0,0,.574h.574v1.52H676.3a.287.287,0,0,0,0,.574h1.263v2.889H660.555l17.009-21.333Z"/><path class="measure-a" d="M691.744,205.428a.345.345,0,0,0,.309.191h7.227a.344.344,0,0,0,.344-.344v-9.523a.344.344,0,0,0-.619-.208l-7.227,9.523A.344.344,0,0,0,691.744,205.428Zm7.191-8.653v8.155h-6.188Z" transform="translate(-24.815 -32.519)"/></g></svg>