<svg xmlns="http://www.w3.org/2000/svg" width="22.008" height="24.249" viewBox="0 0 22.008 24.249">
<defs><style>.share-icon-a{fill:#8ed4ff;stroke:#003e64;}</style></defs>
<path class="share-icon-a" d="M20.507,18.433a3.4,3.4,0,0,0-2.288.9L9.9,14.488A3.821,3.821,0,0,0,10,13.671a3.821,3.821,0,0,0-.105-.817l8.228-4.8A3.494,3.494,0,1,0,17.006,5.5a3.821,3.821,0,0,0,.105.817l-8.228,4.8a3.5,3.5,0,1,0,0,5.112l8.31,4.855a3.293,3.293,0,0,0-.093.759,3.408,3.408,0,1,0,3.408-3.408Zm0-14.1A1.167,1.167,0,1,1,19.34,5.5,1.171,1.171,0,0,1,20.507,4.334ZM6.5,14.838a1.167,1.167,0,1,1,1.167-1.167A1.171,1.171,0,0,1,6.5,14.838Zm14.006,8.193a1.167,1.167,0,1,1,1.167-1.167A1.171,1.171,0,0,1,20.507,23.032Z" transform="translate(-2.5 -1.5)"/></svg>