<svg xmlns="http://www.w3.org/2000/svg" width="15.915" height="18.721" viewBox="0 0 15.915 18.721">
  <g id="Sq._Feet_Icon" data-name="Sq. Feet Icon" transform="translate(-1223.219 -814.864)">
    <path id="Path_237" data-name="Path 237" d="M856.165,311.266a.309.309,0,0,0-.432.434l2.957,2.969-10.895.028a.311.311,0,1,0,0,.621l10.9-.027-2.976,2.976a.315.315,0,0,0,0,.443.306.306,0,0,0,.217.09h0a.306.306,0,0,0,.218-.09l3.5-3.5a.309.309,0,0,0,0-.436Z" transform="translate(379.259 514.661)" fill="#231f20" stroke="#231f20" stroke-width="0.25"/>
    <path id="Path_238" data-name="Path 238" d="M8.681,7.534A.309.309,0,0,1,8.249,7.1l2.957-2.969L.311,4.1a.311.311,0,1,1,0-.621l10.9.028L8.235.533a.315.315,0,0,1,0-.443A.305.305,0,0,1,8.453,0h0a.306.306,0,0,1,.218.09l3.5,3.5a.309.309,0,0,1,0,.436Z" transform="translate(1223.344 827.255) rotate(-90)" fill="#231f20" stroke="#231f20" stroke-width="0.25"/>
  </g>
</svg>
